<svg width="274" height="322" viewBox="0 0 274 322" fill="none" xmlns="http://www.w3.org/2000/svg">
<mask id="mask0_197_14" style="mask-type:alpha" maskUnits="userSpaceOnUse" x="0" y="0" width="274" height="322">
<path d="M136.56 160.533L40.9771 224.395V283.581" stroke="black" stroke-width="50" stroke-linejoin="round"/>
<path d="M137.256 160.533L232.839 96.6717V37.4856" stroke="black" stroke-width="50" stroke-linejoin="round"/>
<path d="M137.289 160.533L232.872 224.395V282.906" stroke="black" stroke-width="50" stroke-linejoin="round"/>
<path d="M136.56 160.533L40.9771 96.6717V38.1605" stroke="black" stroke-width="50" stroke-linejoin="round"/>
<path d="M44.7418 319.912C42.6334 321.452 39.7709 321.452 37.6626 319.912L2.47198 294.201C-2.21472 290.777 0.207276 283.356 6.01158 283.356H76.3927C82.1969 283.356 84.6189 290.777 79.9319 294.201L44.7418 319.912Z" fill="black"/>
<mask id="mask1_197_14" style="mask-type:alpha" maskUnits="userSpaceOnUse" x="0" y="283" width="83" height="39">
<path d="M44.7418 319.912C42.6334 321.452 39.7709 321.452 37.6626 319.912L2.47198 294.201C-2.21472 290.777 0.207276 283.356 6.01158 283.356H76.3927C82.1969 283.356 84.6189 290.777 79.9319 294.201L44.7418 319.912Z" fill="white"/>
</mask>
<g mask="url(#mask1_197_14)">
<path d="M37.6626 319.912L67.1592 279.539L31.9686 253.829L2.47197 294.201L-27.0247 334.574L8.16587 360.284L37.6626 319.912ZM6.01157 283.356V333.356H76.3927V283.356V233.356H6.01157V283.356ZM79.9319 294.201L50.4357 253.829L15.2451 279.539L44.7418 319.912L74.2384 360.284L109.429 334.574L79.9319 294.201ZM76.3927 283.356V333.356C33.8289 333.356 16.0667 278.939 50.4357 253.829L79.9319 294.201L109.429 334.574C153.171 302.615 130.565 233.356 76.3927 233.356V283.356ZM2.47197 294.201L31.9686 253.829C66.3372 278.939 48.5759 333.356 6.01157 333.356V283.356V233.356C-48.1612 233.356 -70.7666 302.615 -27.0247 334.574L2.47197 294.201ZM37.6626 319.912L8.16587 360.284C27.8438 374.661 54.5605 374.661 74.2384 360.284L44.7418 319.912L15.2451 279.539C30.7063 268.243 51.698 268.243 67.1592 279.539L37.6626 319.912Z" fill="black"/>
</g>
<path d="M229.074 1.15529C231.183 -0.385095 234.045 -0.385095 236.154 1.15529L271.344 26.8659C276.031 30.29 273.609 37.7106 267.805 37.7106H197.423C191.619 37.7106 189.197 30.29 193.884 26.8659L229.074 1.15529Z" fill="black"/>
<mask id="mask2_197_14" style="mask-type:alpha" maskUnits="userSpaceOnUse" x="191" y="0" width="83" height="38">
<path d="M229.074 1.15529C231.183 -0.385095 234.045 -0.385095 236.154 1.15529L271.344 26.8659C276.031 30.29 273.609 37.7106 267.805 37.7106H197.423C191.619 37.7106 189.197 30.29 193.884 26.8659L229.074 1.15529Z" fill="white"/>
</mask>
<g mask="url(#mask2_197_14)">
<path d="M236.154 1.15527L206.657 41.5279L241.848 67.2385L271.344 26.8659L300.841 -13.5067L265.65 -39.2173L236.154 1.15527ZM267.805 37.7106V-12.2894H197.423V37.7106V87.7106H267.805V37.7106ZM193.884 26.8659L223.38 67.2385L258.571 41.5279L229.074 1.15527L199.578 -39.2173L164.387 -13.5067L193.884 26.8659ZM197.423 37.7106V-12.2894C239.987 -12.2894 257.749 42.1281 223.38 67.2385L193.884 26.8659L164.387 -13.5067C120.645 18.4518 143.251 87.7106 197.423 87.7106V37.7106ZM271.344 26.8659L241.848 67.2385C207.479 42.1284 225.24 -12.2894 267.805 -12.2894V37.7106V87.7106C321.977 87.7106 344.583 18.4516 300.841 -13.5067L271.344 26.8659ZM236.154 1.15527L265.65 -39.2173C245.972 -53.5942 219.256 -53.5942 199.578 -39.2173L229.074 1.15527L258.571 41.5279C243.11 52.824 222.118 52.824 206.657 41.5279L236.154 1.15527Z" fill="black"/>
</g>
</mask>
<g mask="url(#mask0_197_14)">
<path d="M294.341 -2.43079H-21.6591V322.569H294.341V-2.43079Z" fill="url(#paint0_linear_197_14)" fill-opacity="0.26"/>
</g>
<defs>
<linearGradient id="paint0_linear_197_14" x1="-21.6591" y1="-2.43079" x2="326.829" y2="36.0838" gradientUnits="userSpaceOnUse">
<stop stop-color="#8C52FF"/>
<stop offset="1" stop-color="#FF8934"/>
</linearGradient>
</defs>
</svg>
